<svg width="1130" height="525" viewBox="0 0 1130 525" fill="none" xmlns="http://www.w3.org/2000/svg">
<g clip-path="url(#clip0_203_63)">
<path d="M546.176 290.4H550.208V320.256H567.776V324H546.176V290.4ZM598.031 312.384C598.031 314.368 597.695 316.128 597.023 317.664C596.383 319.168 595.519 320.448 594.431 321.504C593.343 322.528 592.063 323.312 590.591 323.856C589.151 324.4 587.647 324.672 586.079 324.672C584.479 324.672 582.959 324.4 581.519 323.856C580.079 323.312 578.815 322.528 577.727 321.504C576.639 320.448 575.759 319.168 575.087 317.664C574.447 316.128 574.127 314.368 574.127 312.384V311.808C574.127 309.856 574.447 308.128 575.087 306.624C575.759 305.088 576.639 303.792 577.727 302.736C578.847 301.68 580.127 300.88 581.567 300.336C583.007 299.792 584.511 299.52 586.079 299.52C587.647 299.52 589.151 299.792 590.591 300.336C592.031 300.88 593.295 301.68 594.383 302.736C595.503 303.792 596.383 305.088 597.023 306.624C597.695 308.128 598.031 309.856 598.031 311.808V312.384ZM586.079 321.12C587.231 321.12 588.287 320.928 589.247 320.544C590.239 320.128 591.103 319.536 591.839 318.768C592.575 318 593.151 317.088 593.567 316.032C593.983 314.944 594.191 313.728 594.191 312.384V311.808C594.191 310.528 593.983 309.36 593.567 308.304C593.151 307.216 592.575 306.288 591.839 305.52C591.103 304.752 590.239 304.16 589.247 303.744C588.255 303.296 587.199 303.072 586.079 303.072C584.959 303.072 583.903 303.296 582.911 303.744C581.919 304.16 581.055 304.752 580.319 305.52C579.583 306.288 579.007 307.216 578.591 308.304C578.175 309.36 577.967 310.528 577.967 311.808V312.384C577.967 313.728 578.175 314.944 578.591 316.032C579.007 317.088 579.583 318 580.319 318.768C581.055 319.536 581.903 320.128 582.863 320.544C583.855 320.928 584.927 321.12 586.079 321.12ZM623.053 320.352H622.477C621.709 321.792 620.653 322.88 619.309 323.616C617.997 324.32 616.557 324.672 614.989 324.672C613.389 324.672 611.885 324.4 610.477 323.856C609.069 323.312 607.821 322.528 606.733 321.504C605.677 320.48 604.829 319.216 604.189 317.712C603.581 316.176 603.277 314.432 603.277 312.48V311.712C603.277 309.792 603.597 308.08 604.237 306.576C604.877 305.04 605.725 303.76 606.781 302.736C607.837 301.68 609.069 300.88 610.477 300.336C611.885 299.792 613.357 299.52 614.893 299.52C616.621 299.52 618.125 299.904 619.405 300.672C620.717 301.408 621.741 302.496 622.477 303.936H623.053V300.192H626.797V329.856C626.797 330.944 626.445 331.84 625.741 332.544C625.069 333.248 624.189 333.6 623.101 333.6H607.597V330.144H621.757C622.621 330.144 623.053 329.664 623.053 328.704V320.352ZM615.085 321.12C616.205 321.12 617.245 320.912 618.205 320.496C619.165 320.08 619.997 319.488 620.701 318.72C621.437 317.952 622.013 317.04 622.429 315.984C622.845 314.896 623.053 313.696 623.053 312.384V311.808C623.053 310.528 622.845 309.36 622.429 308.304C622.013 307.216 621.437 306.288 620.701 305.52C619.997 304.752 619.149 304.16 618.157 303.744C617.197 303.296 616.173 303.072 615.085 303.072C613.965 303.072 612.909 303.28 611.917 303.696C610.957 304.112 610.109 304.704 609.373 305.472C608.669 306.24 608.109 307.152 607.693 308.208C607.309 309.264 607.117 310.432 607.117 311.712V312.48C607.117 313.824 607.309 315.024 607.693 316.08C608.109 317.136 608.669 318.048 609.373 318.816C610.109 319.552 610.957 320.128 611.917 320.544C612.877 320.928 613.933 321.12 615.085 321.12ZM641.74 293.088C641.74 292.16 642.06 291.376 642.7 290.736C643.372 290.064 644.172 289.728 645.1 289.728C646.028 289.728 646.812 290.064 647.452 290.736C648.124 291.376 648.46 292.16 648.46 293.088C648.46 294.016 648.124 294.816 647.452 295.488C646.812 296.128 646.028 296.448 645.1 296.448C644.172 296.448 643.372 296.128 642.7 295.488C642.06 294.816 641.74 294.016 641.74 293.088ZM634.924 320.544H643.276V303.648H635.788V300.192H647.02V320.544H654.796V324H634.924V320.544ZM667.483 324H663.739V300.192H667.483V304.224H668.059C669.531 301.088 672.091 299.52 675.739 299.52C678.491 299.52 680.683 300.384 682.315 302.112C683.947 303.808 684.763 306.368 684.763 309.792V324H681.019V310.56C681.019 308.064 680.459 306.192 679.339 304.944C678.219 303.696 676.699 303.072 674.779 303.072C672.507 303.072 670.715 303.856 669.403 305.424C668.123 306.96 667.483 309.024 667.483 311.616V324ZM720.552 290.4H728.232L732.744 322.272H733.32L737.832 290.4H745.512V324H741.768V292.128H741.192L736.68 324H729.384L724.872 292.128H724.296V324H720.552V290.4ZM769.19 319.968H768.614C767.846 321.568 766.774 322.752 765.398 323.52C764.054 324.288 762.63 324.672 761.126 324.672C759.558 324.672 758.102 324.416 756.758 323.904C755.414 323.36 754.23 322.576 753.206 321.552C752.214 320.496 751.43 319.216 750.854 317.712C750.278 316.208 749.99 314.464 749.99 312.48V311.712C749.99 309.76 750.278 308.032 750.854 306.528C751.43 305.024 752.214 303.76 753.206 302.736C754.23 301.68 755.414 300.88 756.758 300.336C758.102 299.792 759.526 299.52 761.03 299.52C762.662 299.52 764.134 299.888 765.446 300.624C766.79 301.328 767.846 302.432 768.614 303.936H769.19V300.192H772.934V319.104C772.934 320.064 773.366 320.544 774.23 320.544H775.43V324H772.886C771.798 324 770.902 323.648 770.198 322.944C769.526 322.24 769.19 321.344 769.19 320.256V319.968ZM761.51 321.12C762.63 321.12 763.654 320.912 764.582 320.496C765.542 320.08 766.358 319.488 767.03 318.72C767.702 317.952 768.23 317.04 768.614 315.984C768.998 314.896 769.19 313.696 769.19 312.384V311.808C769.19 310.528 768.998 309.36 768.614 308.304C768.23 307.216 767.686 306.288 766.982 305.52C766.31 304.752 765.494 304.16 764.534 303.744C763.606 303.296 762.598 303.072 761.51 303.072C760.39 303.072 759.366 303.28 758.438 303.696C757.51 304.112 756.694 304.704 755.99 305.472C755.318 306.208 754.79 307.12 754.406 308.208C754.022 309.264 753.83 310.432 753.83 311.712V312.48C753.83 315.2 754.534 317.328 755.942 318.864C757.382 320.368 759.238 321.12 761.51 321.12ZM785.045 324H781.301V300.192H785.045V304.224H785.621C787.093 301.088 789.653 299.52 793.301 299.52C796.053 299.52 798.245 300.384 799.877 302.112C801.509 303.808 802.325 306.368 802.325 309.792V324H798.581V310.56C798.581 308.064 798.021 306.192 796.901 304.944C795.781 303.696 794.261 303.072 792.341 303.072C790.069 303.072 788.277 303.856 786.965 305.424C785.685 306.96 785.045 309.024 785.045 311.616V324ZM827.972 319.968H827.396C826.628 321.568 825.556 322.752 824.18 323.52C822.836 324.288 821.412 324.672 819.908 324.672C818.34 324.672 816.884 324.416 815.54 323.904C814.196 323.36 813.012 322.576 811.988 321.552C810.996 320.496 810.212 319.216 809.636 317.712C809.06 316.208 808.772 314.464 808.772 312.48V311.712C808.772 309.76 809.06 308.032 809.636 306.528C810.212 305.024 810.996 303.76 811.988 302.736C813.012 301.68 814.196 300.88 815.54 300.336C816.884 299.792 818.308 299.52 819.812 299.52C821.444 299.52 822.916 299.888 824.228 300.624C825.572 301.328 826.628 302.432 827.396 303.936H827.972V300.192H831.716V319.104C831.716 320.064 832.148 320.544 833.012 320.544H834.212V324H831.668C830.58 324 829.684 323.648 828.98 322.944C828.308 322.24 827.972 321.344 827.972 320.256V319.968ZM820.292 321.12C821.412 321.12 822.436 320.912 823.364 320.496C824.324 320.08 825.14 319.488 825.812 318.72C826.484 317.952 827.012 317.04 827.396 315.984C827.78 314.896 827.972 313.696 827.972 312.384V311.808C827.972 310.528 827.78 309.36 827.396 308.304C827.012 307.216 826.468 306.288 825.764 305.52C825.092 304.752 824.276 304.16 823.316 303.744C822.388 303.296 821.38 303.072 820.292 303.072C819.172 303.072 818.148 303.28 817.22 303.696C816.292 304.112 815.476 304.704 814.772 305.472C814.1 306.208 813.572 307.12 813.188 308.208C812.804 309.264 812.612 310.432 812.612 311.712V312.48C812.612 315.2 813.316 317.328 814.724 318.864C816.164 320.368 818.02 321.12 820.292 321.12ZM858.178 320.352H857.602C856.834 321.792 855.778 322.88 854.434 323.616C853.122 324.32 851.682 324.672 850.114 324.672C848.514 324.672 847.01 324.4 845.602 323.856C844.194 323.312 842.946 322.528 841.858 321.504C840.802 320.48 839.954 319.216 839.314 317.712C838.706 316.176 838.402 314.432 838.402 312.48V311.712C838.402 309.792 838.722 308.08 839.362 306.576C840.002 305.04 840.85 303.76 841.906 302.736C842.962 301.68 844.194 300.88 845.602 300.336C847.01 299.792 848.482 299.52 850.018 299.52C851.746 299.52 853.25 299.904 854.53 300.672C855.842 301.408 856.866 302.496 857.602 303.936H858.178V300.192H861.922V329.856C861.922 330.944 861.57 331.84 860.866 332.544C860.194 333.248 859.314 333.6 858.226 333.6H842.722V330.144H856.882C857.746 330.144 858.178 329.664 858.178 328.704V320.352ZM850.21 321.12C851.33 321.12 852.37 320.912 853.33 320.496C854.29 320.08 855.122 319.488 855.826 318.72C856.562 317.952 857.138 317.04 857.554 315.984C857.97 314.896 858.178 313.696 858.178 312.384V311.808C858.178 310.528 857.97 309.36 857.554 308.304C857.138 307.216 856.562 306.288 855.826 305.52C855.122 304.752 854.274 304.16 853.282 303.744C852.322 303.296 851.298 303.072 850.21 303.072C849.09 303.072 848.034 303.28 847.042 303.696C846.082 304.112 845.234 304.704 844.498 305.472C843.794 306.24 843.234 307.152 842.818 308.208C842.434 309.264 842.242 310.432 842.242 311.712V312.48C842.242 313.824 842.434 315.024 842.818 316.08C843.234 317.136 843.794 318.048 844.498 318.816C845.234 319.552 846.082 320.128 847.042 320.544C848.002 320.928 849.058 321.12 850.21 321.12ZM872.209 313.248C872.305 315.616 873.041 317.52 874.417 318.96C875.793 320.4 877.713 321.12 880.177 321.12C881.297 321.12 882.273 320.992 883.105 320.736C883.937 320.48 884.641 320.128 885.217 319.68C885.825 319.232 886.305 318.72 886.657 318.144C887.041 317.536 887.345 316.896 887.569 316.224L891.121 317.184C890.449 319.392 889.201 321.2 887.377 322.608C885.585 323.984 883.153 324.672 880.081 324.672C878.385 324.672 876.817 324.384 875.377 323.808C873.969 323.2 872.753 322.352 871.729 321.264C870.705 320.176 869.905 318.88 869.329 317.376C868.753 315.872 868.465 314.208 868.465 312.384V311.232C868.465 309.568 868.753 308.016 869.329 306.576C869.937 305.136 870.769 303.904 871.825 302.88C872.881 301.824 874.113 301.008 875.521 300.432C876.961 299.824 878.513 299.52 880.177 299.52C882.129 299.52 883.809 299.888 885.217 300.624C886.657 301.328 887.825 302.208 888.721 303.264C889.649 304.32 890.321 305.472 890.737 306.72C891.185 307.968 891.409 309.12 891.409 310.176V313.248H872.209ZM880.177 303.072C879.121 303.072 878.129 303.248 877.201 303.6C876.305 303.92 875.505 304.384 874.801 304.992C874.129 305.6 873.569 306.32 873.121 307.152C872.705 307.952 872.433 308.832 872.305 309.792H887.665C887.601 308.768 887.345 307.84 886.897 307.008C886.481 306.176 885.921 305.472 885.217 304.896C884.545 304.32 883.761 303.872 882.865 303.552C882.001 303.232 881.105 303.072 880.177 303.072ZM897.52 300.192H906.16V303.36H906.736C907.344 302.048 908.208 301.088 909.328 300.48C910.448 299.84 911.728 299.52 913.168 299.52C915.568 299.52 917.504 300.304 918.976 301.872C920.448 303.44 921.232 305.728 921.328 308.736L917.392 309.312C917.392 307.104 916.864 305.52 915.808 304.56C914.752 303.568 913.456 303.072 911.92 303.072C910.928 303.072 910.064 303.264 909.328 303.648C908.624 304.032 908.032 304.56 907.552 305.232C907.072 305.904 906.72 306.688 906.496 307.584C906.272 308.48 906.16 309.44 906.16 310.464V320.544H912.208V324H896.944V320.544H902.416V303.648H897.52V300.192ZM933.198 306.336C933.198 307.488 933.678 308.368 934.638 308.976C935.63 309.584 937.422 309.984 940.014 310.176C942.798 310.4 944.91 311.072 946.35 312.192C947.822 313.28 948.558 314.88 948.558 316.992V317.28C948.558 318.432 948.318 319.472 947.838 320.4C947.39 321.296 946.75 322.064 945.918 322.704C945.118 323.344 944.126 323.824 942.942 324.144C941.79 324.496 940.526 324.672 939.15 324.672C937.294 324.672 935.694 324.432 934.35 323.952C933.038 323.44 931.934 322.784 931.038 321.984C930.174 321.152 929.518 320.224 929.07 319.2C928.622 318.144 928.366 317.088 928.302 316.032L931.854 315.168C932.014 316.992 932.718 318.464 933.966 319.584C935.214 320.672 936.878 321.216 938.958 321.216C940.718 321.216 942.126 320.88 943.182 320.208C944.27 319.504 944.814 318.528 944.814 317.28C944.814 315.936 944.286 314.976 943.23 314.4C942.174 313.824 940.462 313.456 938.094 313.296C935.342 313.104 933.23 312.464 931.758 311.376C930.286 310.288 929.55 308.704 929.55 306.624V306.336C929.55 305.216 929.79 304.24 930.27 303.408C930.75 302.544 931.39 301.824 932.19 301.248C933.022 300.672 933.95 300.24 934.974 299.952C935.998 299.664 937.07 299.52 938.19 299.52C939.758 299.52 941.134 299.744 942.318 300.192C943.502 300.608 944.494 301.168 945.294 301.872C946.094 302.544 946.702 303.328 947.118 304.224C947.566 305.12 947.854 306.016 947.982 306.912L944.43 307.776C944.27 306.24 943.646 305.04 942.558 304.176C941.502 303.312 940.11 302.88 938.382 302.88C937.71 302.88 937.054 302.96 936.414 303.12C935.806 303.248 935.262 303.456 934.782 303.744C934.302 304.032 933.918 304.4 933.63 304.848C933.342 305.264 933.198 305.76 933.198 306.336ZM1009.93 324H1006.19V306.912C1006.19 305.792 1005.93 304.88 1005.42 304.176C1004.91 303.44 1004.09 303.072 1002.97 303.072C1001.92 303.072 1001.05 303.472 1000.38 304.272C999.739 305.04 999.419 306.24 999.419 307.872V324H995.675V306.72C995.675 305.664 995.387 304.8 994.811 304.128C994.235 303.424 993.467 303.072 992.507 303.072C991.355 303.072 990.459 303.488 989.819 304.32C989.211 305.152 988.907 306.24 988.907 307.584V324H985.163V300.192H988.907V302.784H989.483C989.899 301.664 990.507 300.848 991.307 300.336C992.107 299.792 993.051 299.52 994.139 299.52C995.291 299.52 996.235 299.824 996.971 300.432C997.739 301.04 998.267 301.824 998.555 302.784H999.131C1000.22 300.608 1001.95 299.52 1004.32 299.52C1006.11 299.52 1007.48 300.096 1008.44 301.248C1009.44 302.368 1009.93 303.84 1009.93 305.664V324ZM1033.71 319.968H1033.13C1032.36 321.568 1031.29 322.752 1029.91 323.52C1028.57 324.288 1027.15 324.672 1025.64 324.672C1024.07 324.672 1022.62 324.416 1021.27 323.904C1019.93 323.36 1018.75 322.576 1017.72 321.552C1016.73 320.496 1015.95 319.216 1015.37 317.712C1014.79 316.208 1014.51 314.464 1014.51 312.48V311.712C1014.51 309.76 1014.79 308.032 1015.37 306.528C1015.95 305.024 1016.73 303.76 1017.72 302.736C1018.75 301.68 1019.93 300.88 1021.27 300.336C1022.62 299.792 1024.04 299.52 1025.55 299.52C1027.18 299.52 1028.65 299.888 1029.96 300.624C1031.31 301.328 1032.36 302.432 1033.13 303.936H1033.71V300.192H1037.45V319.104C1037.45 320.064 1037.88 320.544 1038.75 320.544H1039.95V324H1037.4C1036.31 324 1035.42 323.648 1034.71 322.944C1034.04 322.24 1033.71 321.344 1033.71 320.256V319.968ZM1026.03 321.12C1027.15 321.12 1028.17 320.912 1029.1 320.496C1030.06 320.08 1030.87 319.488 1031.55 318.72C1032.22 317.952 1032.75 317.04 1033.13 315.984C1033.51 314.896 1033.71 313.696 1033.71 312.384V311.808C1033.71 310.528 1033.51 309.36 1033.13 308.304C1032.75 307.216 1032.2 306.288 1031.5 305.52C1030.83 304.752 1030.01 304.16 1029.05 303.744C1028.12 303.296 1027.11 303.072 1026.03 303.072C1024.91 303.072 1023.88 303.28 1022.95 303.696C1022.03 304.112 1021.21 304.704 1020.51 305.472C1019.83 306.208 1019.31 307.12 1018.92 308.208C1018.54 309.264 1018.35 310.432 1018.35 311.712V312.48C1018.35 315.2 1019.05 317.328 1020.46 318.864C1021.9 320.368 1023.75 321.12 1026.03 321.12ZM1064.25 320.352H1063.67C1063.29 321.088 1062.79 321.728 1062.18 322.272C1061.61 322.816 1060.97 323.264 1060.26 323.616C1059.59 323.968 1058.87 324.224 1058.1 324.384C1057.34 324.576 1056.6 324.672 1055.9 324.672C1054.3 324.672 1052.81 324.4 1051.43 323.856C1050.06 323.312 1048.84 322.528 1047.78 321.504C1046.76 320.48 1045.94 319.216 1045.34 317.712C1044.76 316.176 1044.47 314.432 1044.47 312.48V311.712C1044.47 309.792 1044.78 308.08 1045.38 306.576C1045.99 305.04 1046.81 303.76 1047.83 302.736C1048.86 301.68 1050.06 300.88 1051.43 300.336C1052.81 299.792 1054.26 299.52 1055.8 299.52C1057.43 299.52 1058.95 299.888 1060.36 300.624C1061.8 301.328 1062.9 302.432 1063.67 303.936H1064.25V290.4H1067.99V324H1064.25V320.352ZM1056.28 321.12C1057.4 321.12 1058.44 320.912 1059.4 320.496C1060.36 320.08 1061.19 319.488 1061.9 318.72C1062.63 317.952 1063.21 317.04 1063.62 315.984C1064.04 314.896 1064.25 313.696 1064.25 312.384V311.808C1064.25 310.528 1064.04 309.36 1063.62 308.304C1063.21 307.216 1062.63 306.288 1061.9 305.52C1061.19 304.752 1060.34 304.16 1059.35 303.744C1058.39 303.296 1057.37 303.072 1056.28 303.072C1055.16 303.072 1054.1 303.28 1053.11 303.696C1052.15 304.112 1051.3 304.704 1050.57 305.472C1049.86 306.24 1049.3 307.152 1048.89 308.208C1048.5 309.264 1048.31 310.432 1048.31 311.712V312.48C1048.31 313.824 1048.5 315.024 1048.89 316.08C1049.3 317.136 1049.86 318.048 1050.57 318.816C1051.3 319.552 1052.15 320.128 1053.11 320.544C1054.07 320.928 1055.13 321.12 1056.28 321.12ZM1077.94 313.248C1078.04 315.616 1078.78 317.52 1080.15 318.96C1081.53 320.4 1083.45 321.12 1085.91 321.12C1087.03 321.12 1088.01 320.992 1088.84 320.736C1089.67 320.48 1090.38 320.128 1090.95 319.68C1091.56 319.232 1092.04 318.72 1092.39 318.144C1092.78 317.536 1093.08 316.896 1093.3 316.224L1096.86 317.184C1096.18 319.392 1094.94 321.2 1093.11 322.608C1091.32 323.984 1088.89 324.672 1085.82 324.672C1084.12 324.672 1082.55 324.384 1081.11 323.808C1079.7 323.2 1078.49 322.352 1077.46 321.264C1076.44 320.176 1075.64 318.88 1075.06 317.376C1074.49 315.872 1074.2 314.208 1074.2 312.384V311.232C1074.2 309.568 1074.49 308.016 1075.06 306.576C1075.67 305.136 1076.5 303.904 1077.56 302.88C1078.62 301.824 1079.85 301.008 1081.26 300.432C1082.7 299.824 1084.25 299.52 1085.91 299.52C1087.86 299.52 1089.54 299.888 1090.95 300.624C1092.39 301.328 1093.56 302.208 1094.46 303.264C1095.38 304.32 1096.06 305.472 1096.47 306.72C1096.92 307.968 1097.14 309.12 1097.14 310.176V313.248H1077.94ZM1085.91 303.072C1084.86 303.072 1083.86 303.248 1082.94 303.6C1082.04 303.92 1081.24 304.384 1080.54 304.992C1079.86 305.6 1079.3 306.32 1078.86 307.152C1078.44 307.952 1078.17 308.832 1078.04 309.792H1093.4C1093.34 308.768 1093.08 307.84 1092.63 307.008C1092.22 306.176 1091.66 305.472 1090.95 304.896C1090.28 304.32 1089.5 303.872 1088.6 303.552C1087.74 303.232 1086.84 303.072 1085.91 303.072ZM548.912 384.248C549.008 386.616 549.744 388.52 551.12 389.96C552.496 391.4 554.416 392.12 556.88 392.12C558 392.12 558.976 391.992 559.808 391.736C560.64 391.48 561.344 391.128 561.92 390.68C562.528 390.232 563.008 389.72 563.36 389.144C563.744 388.536 564.048 387.896 564.272 387.224L567.824 388.184C567.152 390.392 565.904 392.2 564.08 393.608C562.288 394.984 559.856 395.672 556.784 395.672C555.088 395.672 553.52 395.384 552.08 394.808C550.672 394.2 549.456 393.352 548.432 392.264C547.408 391.176 546.608 389.88 546.032 388.376C545.456 386.872 545.168 385.208 545.168 383.384V382.232C545.168 380.568 545.456 379.016 546.032 377.576C546.64 376.136 547.472 374.904 548.528 373.88C549.584 372.824 550.816 372.008 552.224 371.432C553.664 370.824 555.216 370.52 556.88 370.52C558.832 370.52 560.512 370.888 561.92 371.624C563.36 372.328 564.528 373.208 565.424 374.264C566.352 375.32 567.024 376.472 567.44 377.72C567.888 378.968 568.112 380.12 568.112 381.176V384.248H548.912ZM556.88 374.072C555.824 374.072 554.832 374.248 553.904 374.6C553.008 374.92 552.208 375.384 551.504 375.992C550.832 376.6 550.272 377.32 549.824 378.152C549.408 378.952 549.136 379.832 549.008 380.792H564.368C564.304 379.768 564.048 378.84 563.6 378.008C563.184 377.176 562.624 376.472 561.92 375.896C561.248 375.32 560.464 374.872 559.568 374.552C558.704 374.232 557.808 374.072 556.88 374.072ZM592.847 390.968H592.271C591.503 392.568 590.431 393.752 589.055 394.52C587.711 395.288 586.287 395.672 584.783 395.672C583.215 395.672 581.759 395.416 580.415 394.904C579.071 394.36 577.887 393.576 576.863 392.552C575.871 391.496 575.087 390.216 574.511 388.712C573.935 387.208 573.647 385.464 573.647 383.48V382.712C573.647 380.76 573.935 379.032 574.511 377.528C575.087 376.024 575.871 374.76 576.863 373.736C577.887 372.68 579.071 371.88 580.415 371.336C581.759 370.792 583.183 370.52 584.687 370.52C586.319 370.52 587.791 370.888 589.103 371.624C590.447 372.328 591.503 373.432 592.271 374.936H592.847V371.192H596.591V390.104C596.591 391.064 597.023 391.544 597.887 391.544H599.087V395H596.543C595.455 395 594.559 394.648 593.855 393.944C593.183 393.24 592.847 392.344 592.847 391.256V390.968ZM585.167 392.12C586.287 392.12 587.311 391.912 588.239 391.496C589.199 391.08 590.015 390.488 590.687 389.72C591.359 388.952 591.887 388.04 592.271 386.984C592.655 385.896 592.847 384.696 592.847 383.384V382.808C592.847 381.528 592.655 380.36 592.271 379.304C591.887 378.216 591.343 377.288 590.639 376.52C589.967 375.752 589.151 375.16 588.191 374.744C587.263 374.296 586.255 374.072 585.167 374.072C584.047 374.072 583.023 374.28 582.095 374.696C581.167 375.112 580.351 375.704 579.647 376.472C578.975 377.208 578.447 378.12 578.063 379.208C577.679 380.264 577.487 381.432 577.487 382.712V383.48C577.487 386.2 578.191 388.328 579.599 389.864C581.039 391.368 582.895 392.12 585.167 392.12ZM609.901 377.336C609.901 378.488 610.381 379.368 611.341 379.976C612.333 380.584 614.125 380.984 616.717 381.176C619.501 381.4 621.613 382.072 623.053 383.192C624.525 384.28 625.261 385.88 625.261 387.992V388.28C625.261 389.432 625.021 390.472 624.541 391.4C624.093 392.296 623.453 393.064 622.621 393.704C621.821 394.344 620.829 394.824 619.645 395.144C618.493 395.496 617.229 395.672 615.853 395.672C613.997 395.672 612.397 395.432 611.053 394.952C609.741 394.44 608.637 393.784 607.741 392.984C606.877 392.152 606.221 391.224 605.773 390.2C605.325 389.144 605.069 388.088 605.005 387.032L608.557 386.168C608.717 387.992 609.421 389.464 610.669 390.584C611.917 391.672 613.581 392.216 615.661 392.216C617.421 392.216 618.829 391.88 619.885 391.208C620.973 390.504 621.517 389.528 621.517 388.28C621.517 386.936 620.989 385.976 619.933 385.4C618.877 384.824 617.165 384.456 614.797 384.296C612.045 384.104 609.933 383.464 608.461 382.376C606.989 381.288 606.253 379.704 606.253 377.624V377.336C606.253 376.216 606.493 375.24 606.973 374.408C607.453 373.544 608.093 372.824 608.893 372.248C609.725 371.672 610.653 371.24 611.677 370.952C612.701 370.664 613.773 370.52 614.893 370.52C616.461 370.52 617.837 370.744 619.021 371.192C620.205 371.608 621.197 372.168 621.997 372.872C622.797 373.544 623.405 374.328 623.821 375.224C624.269 376.12 624.557 377.016 624.685 377.912L621.133 378.776C620.973 377.24 620.349 376.04 619.261 375.176C618.205 374.312 616.813 373.88 615.085 373.88C614.413 373.88 613.757 373.96 613.117 374.12C612.509 374.248 611.965 374.456 611.485 374.744C611.005 375.032 610.621 375.4 610.333 375.848C610.045 376.264 609.901 376.76 609.901 377.336ZM651.628 390.68H651.052C650.284 392.216 649.276 393.432 648.028 394.328C646.78 395.224 645.196 395.672 643.276 395.672C641.964 395.672 640.748 395.448 639.628 395C638.54 394.584 637.596 393.944 636.796 393.08C636.028 392.216 635.42 391.144 634.972 389.864C634.556 388.584 634.348 387.096 634.348 385.4V371.192H638.092V384.92C638.092 387.416 638.604 389.24 639.628 390.392C640.652 391.544 642.22 392.12 644.332 392.12C646.604 392.12 648.38 391.352 649.66 389.816C650.972 388.248 651.628 386.168 651.628 383.576V371.192H655.372V400.856C655.372 401.944 655.02 402.84 654.316 403.544C653.644 404.248 652.764 404.6 651.676 404.6H638.092V401.144H650.332C651.196 401.144 651.628 400.664 651.628 399.704V390.68ZM713.721 395H706.809L703.929 372.92H703.353L700.473 395H693.561L689.817 371.192H693.657L696.825 393.272H697.401L700.185 371.192H707.097L709.881 393.272H710.457L713.625 371.192H717.465L713.721 395ZM729.912 364.088C729.912 363.16 730.232 362.376 730.872 361.736C731.544 361.064 732.344 360.728 733.272 360.728C734.2 360.728 734.984 361.064 735.624 361.736C736.296 362.376 736.632 363.16 736.632 364.088C736.632 365.016 736.296 365.816 735.624 366.488C734.984 367.128 734.2 367.448 733.272 367.448C732.344 367.448 731.544 367.128 730.872 366.488C730.232 365.816 729.912 365.016 729.912 364.088ZM723.096 391.544H731.448V374.648H723.96V371.192H735.192V391.544H742.968V395H723.096V391.544ZM751.094 371.192H758.582V361.4H762.326V371.192H771.542V374.648H762.326V390.104C762.326 391.064 762.758 391.544 763.622 391.544H770.39V395H762.278C761.19 395 760.294 394.648 759.59 393.944C758.918 393.24 758.582 392.344 758.582 391.256V374.648H751.094V371.192ZM785.045 395H781.301V361.4H785.045V375.512H785.621C786.357 373.976 787.381 372.76 788.693 371.864C790.037 370.968 791.669 370.52 793.589 370.52C796.181 370.52 798.277 371.384 799.877 373.112C801.509 374.808 802.325 377.368 802.325 380.792V395H798.581V381.56C798.581 379.064 798.021 377.192 796.901 375.944C795.781 374.696 794.261 374.072 792.341 374.072C790.069 374.072 788.277 374.856 786.965 376.424C785.685 377.96 785.045 380.024 785.045 382.616V395ZM861.106 395H857.074V383.768C857.074 382.936 856.882 382.296 856.498 381.848C856.114 381.4 855.442 381.176 854.482 381.176H844.018V395H839.986V361.4H851.986C853.714 361.4 855.218 361.656 856.498 362.168C857.778 362.648 858.834 363.304 859.666 364.136C860.53 364.968 861.17 365.944 861.586 367.064C862.034 368.152 862.258 369.304 862.258 370.52V371.96C862.258 373.208 861.906 374.456 861.202 375.704C860.53 376.952 859.474 377.912 858.034 378.584V379.16C858.994 379.32 859.746 379.704 860.29 380.312C860.834 380.92 861.106 381.784 861.106 382.904V395ZM844.018 377.432H851.506C853.778 377.432 855.458 376.952 856.546 375.992C857.666 375 858.226 373.56 858.226 371.672V370.808C858.226 369.112 857.666 367.752 856.546 366.728C855.458 365.672 853.778 365.144 851.506 365.144H844.018V377.432ZM886.465 371.192H890.209V395H886.465V390.68H885.889C885.121 392.216 884.113 393.432 882.865 394.328C881.617 395.224 880.033 395.672 878.113 395.672C876.801 395.672 875.585 395.448 874.465 395C873.377 394.584 872.433 393.944 871.633 393.08C870.865 392.216 870.257 391.144 869.809 389.864C869.393 388.584 869.185 387.096 869.185 385.4V371.192H872.929V384.92C872.929 387.416 873.441 389.24 874.465 390.392C875.489 391.544 877.057 392.12 879.169 392.12C881.441 392.12 883.217 391.352 884.497 389.816C885.809 388.248 886.465 386.168 886.465 383.576V371.192ZM903.808 377.336C903.808 378.488 904.288 379.368 905.248 379.976C906.24 380.584 908.032 380.984 910.624 381.176C913.408 381.4 915.52 382.072 916.96 383.192C918.432 384.28 919.168 385.88 919.168 387.992V388.28C919.168 389.432 918.928 390.472 918.448 391.4C918 392.296 917.36 393.064 916.528 393.704C915.728 394.344 914.736 394.824 913.552 395.144C912.4 395.496 911.136 395.672 909.76 395.672C907.904 395.672 906.304 395.432 904.96 394.952C903.648 394.44 902.544 393.784 901.648 392.984C900.784 392.152 900.128 391.224 899.68 390.2C899.232 389.144 898.976 388.088 898.912 387.032L902.464 386.168C902.624 387.992 903.328 389.464 904.576 390.584C905.824 391.672 907.488 392.216 909.568 392.216C911.328 392.216 912.736 391.88 913.792 391.208C914.88 390.504 915.424 389.528 915.424 388.28C915.424 386.936 914.896 385.976 913.84 385.4C912.784 384.824 911.072 384.456 908.704 384.296C905.952 384.104 903.84 383.464 902.368 382.376C900.896 381.288 900.16 379.704 900.16 377.624V377.336C900.16 376.216 900.4 375.24 900.88 374.408C901.36 373.544 902 372.824 902.8 372.248C903.632 371.672 904.56 371.24 905.584 370.952C906.608 370.664 907.68 370.52 908.799 370.52C910.368 370.52 911.744 370.744 912.928 371.192C914.112 371.608 915.104 372.168 915.904 372.872C916.704 373.544 917.312 374.328 917.728 375.224C918.176 376.12 918.464 377.016 918.592 377.912L915.04 378.776C914.88 377.24 914.256 376.04 913.168 375.176C912.112 374.312 910.72 373.88 908.992 373.88C908.32 373.88 907.664 373.96 907.023 374.12C906.416 374.248 905.872 374.456 905.392 374.744C904.912 375.032 904.528 375.4 904.24 375.848C903.952 376.264 903.808 376.76 903.808 377.336ZM927.438 371.192H934.926V361.4H938.67V371.192H947.886V374.648H938.67V390.104C938.67 391.064 939.102 391.544 939.966 391.544H946.734V395H938.622C937.534 395 936.638 394.648 935.934 393.944C935.262 393.24 934.926 392.344 934.926 391.256V374.648H927.438V371.192Z" fill="black"/>
<path d="M550.352 153.8H558.416V213.512H593.552V221H550.352V153.8ZM614.605 199.496C614.797 204.232 616.269 208.04 619.021 210.92C621.773 213.8 625.613 215.24 630.541 215.24C632.781 215.24 634.733 214.984 636.397 214.472C638.061 213.96 639.469 213.256 640.621 212.36C641.837 211.464 642.797 210.44 643.501 209.288C644.269 208.072 644.877 206.792 645.325 205.448L652.429 207.368C651.085 211.784 648.589 215.4 644.941 218.216C641.357 220.968 636.493 222.344 630.349 222.344C626.957 222.344 623.821 221.768 620.941 220.616C618.125 219.4 615.693 217.704 613.645 215.528C611.597 213.352 609.997 210.76 608.845 207.752C607.693 204.744 607.117 201.416 607.117 197.768V195.464C607.117 192.136 607.693 189.032 608.845 186.152C610.061 183.272 611.725 180.808 613.837 178.76C615.949 176.648 618.413 175.016 621.229 173.864C624.109 172.648 627.213 172.04 630.541 172.04C634.445 172.04 637.805 172.776 640.621 174.248C643.501 175.656 645.837 177.416 647.629 179.528C649.485 181.64 650.829 183.944 651.661 186.44C652.557 188.936 653.005 191.24 653.005 193.352V199.496H614.605ZM630.541 179.144C628.429 179.144 626.445 179.496 624.589 180.2C622.797 180.84 621.197 181.768 619.789 182.984C618.445 184.2 617.325 185.64 616.429 187.304C615.597 188.904 615.053 190.664 614.797 192.584H645.517C645.389 190.536 644.877 188.68 643.981 187.016C643.149 185.352 642.029 183.944 640.621 182.792C639.277 181.64 637.709 180.744 635.917 180.104C634.189 179.464 632.397 179.144 630.541 179.144ZM713.707 221H706.219V186.824C706.219 184.584 705.707 182.76 704.683 181.352C703.659 179.88 702.027 179.144 699.787 179.144C697.675 179.144 695.947 179.944 694.603 181.544C693.323 183.08 692.683 185.48 692.683 188.744V221H685.195V186.44C685.195 184.328 684.619 182.6 683.467 181.256C682.315 179.848 680.779 179.144 678.859 179.144C676.555 179.144 674.763 179.976 673.483 181.64C672.267 183.304 671.659 185.48 671.659 188.168V221H664.171V173.384H671.659V178.568H672.811C673.643 176.328 674.859 174.696 676.459 173.672C678.059 172.584 679.947 172.04 682.123 172.04C684.427 172.04 686.315 172.648 687.786 173.864C689.323 175.08 690.379 176.648 690.955 178.568H692.107C694.283 174.216 697.739 172.04 702.475 172.04C706.059 172.04 708.811 173.192 710.731 175.496C712.715 177.736 713.707 180.68 713.707 184.328V221ZM760.68 173.384H768.168V221H760.68V212.36H759.528C757.992 215.432 755.976 217.864 753.48 219.656C750.984 221.448 747.816 222.344 743.976 222.344C741.352 222.344 738.92 221.896 736.68 221C734.504 220.168 732.616 218.888 731.016 217.16C729.48 215.432 728.264 213.288 727.368 210.728C726.536 208.168 726.12 205.192 726.12 201.8V173.384H733.608V200.84C733.608 205.832 734.632 209.48 736.68 211.784C738.728 214.088 741.864 215.24 746.088 215.24C750.632 215.24 754.184 213.704 756.744 210.632C759.368 207.496 760.68 203.336 760.68 198.152V173.384ZM782.789 173.384H800.069V179.72H801.221C802.437 177.096 804.165 175.176 806.405 173.96C808.645 172.68 811.205 172.04 814.085 172.04C818.885 172.04 822.757 173.608 825.701 176.744C828.645 179.88 830.213 184.456 830.405 190.472L822.533 191.624C822.533 187.208 821.477 184.04 819.365 182.12C817.253 180.136 814.661 179.144 811.589 179.144C809.605 179.144 807.877 179.528 806.405 180.296C804.997 181.064 803.813 182.12 802.853 183.464C801.893 184.808 801.189 186.376 800.741 188.168C800.293 189.96 800.069 191.88 800.069 193.928V214.088H812.165V221H781.637V214.088H792.581V180.296H782.789V173.384ZM854.146 185.672C854.146 187.976 855.106 189.736 857.026 190.952C859.01 192.168 862.594 192.968 867.778 193.352C873.346 193.8 877.57 195.144 880.45 197.384C883.394 199.56 884.866 202.76 884.866 206.984V207.56C884.866 209.864 884.386 211.944 883.426 213.8C882.53 215.592 881.25 217.128 879.586 218.408C877.986 219.688 876.002 220.648 873.634 221.288C871.33 221.992 868.802 222.344 866.05 222.344C862.338 222.344 859.138 221.864 856.45 220.904C853.826 219.88 851.618 218.568 849.826 216.968C848.098 215.304 846.786 213.448 845.89 211.4C844.994 209.288 844.482 207.176 844.354 205.064L851.458 203.336C851.778 206.984 853.186 209.928 855.682 212.168C858.178 214.344 861.506 215.432 865.666 215.432C869.186 215.432 872.002 214.76 874.114 213.416C876.29 212.008 877.378 210.056 877.378 207.56C877.378 204.872 876.322 202.952 874.21 201.8C872.098 200.648 868.674 199.912 863.938 199.592C858.434 199.208 854.21 197.928 851.266 195.752C848.322 193.576 846.85 190.408 846.85 186.248V185.672C846.85 183.432 847.33 181.48 848.29 179.816C849.25 178.088 850.53 176.648 852.13 175.496C853.794 174.344 855.65 173.48 857.698 172.904C859.746 172.328 861.89 172.04 864.13 172.04C867.266 172.04 870.018 172.488 872.386 173.384C874.754 174.216 876.738 175.336 878.338 176.744C879.938 178.088 881.154 179.656 881.986 181.448C882.882 183.24 883.458 185.032 883.714 186.824L876.61 188.552C876.29 185.48 875.042 183.08 872.866 181.352C870.754 179.624 867.97 178.76 864.514 178.76C863.17 178.76 861.858 178.92 860.578 179.24C859.362 179.496 858.274 179.912 857.314 180.488C856.354 181.064 855.586 181.8 855.01 182.696C854.434 183.528 854.146 184.52 854.146 185.672Z" fill="black"/>
<path d="M407.63 274.098C407.63 266.48 401.455 260.304 393.837 260.304C386.219 260.304 380.043 266.48 380.043 274.098V313.333L433.378 313.639L407.63 274.098Z" fill="#325763"/>
<path d="M435.217 313.333V274.098C435.217 266.48 429.042 260.304 421.423 260.304C413.806 260.304 407.63 266.48 407.63 274.098V313.333H435.217Z" fill="#05232E"/>
<path d="M435.217 287.891H407.631L388.32 320.69L407.631 352.261L444.413 336.497L458.82 321.302L444.413 306.283L435.217 287.891Z" fill="#F6D76F"/>
<path d="M444.413 306.283V336.497L472 324.674V306.283H444.413Z" fill="#05232E"/>
<path d="M359.328 287.891C359.328 315.172 360.12 328.237 360.12 352.261H407.63V287.891H359.328Z" fill="#05232E"/>
<path d="M278.891 425.826C278.891 446.14 295.359 462.609 315.674 462.609H334.066C334.066 452.451 325.832 444.217 315.674 444.217V324.368H278.891V425.826Z" fill="#05232E"/>
<path d="M159.348 324.674L144.941 312.719L131.761 324.674C131.761 339.91 144.111 352.261 159.348 352.261C172.528 342.759 181.264 335.555 192.146 324.674H159.348Z" fill="#6B8F9C"/>
<path d="M159.348 159.152L145.555 145.359L131.761 159.152V186.739L145.555 201.758L159.348 186.739V159.152Z" fill="#6B8F9C"/>
<path d="M159.348 214.326L145.555 201.758L131.761 214.326V241.913L145.555 255.706L159.348 241.913V214.326Z" fill="#6B8F9C"/>
<path d="M159.348 269.5L145.555 255.706L131.761 269.5V297.087L146.168 309.654L159.348 297.087V269.5Z" fill="#6B8F9C"/>
<path d="M159.348 131.565C159.348 101.093 134.645 76.3906 104.173 76.3906L89.1544 91.4104L104.173 103.978C119.41 103.978 131.76 116.329 131.76 131.565L145.554 145.972L159.348 131.565Z" fill="#325763"/>
<path d="M159.348 297.087H131.761V324.673H159.348V297.087Z" fill="#05232E"/>
<path d="M159.348 241.913H131.761V269.5H159.348V241.913Z" fill="#05232E"/>
<path d="M159.348 186.739H131.761V214.326H159.348V186.739Z" fill="#05232E"/>
<path d="M159.348 131.565H131.761V159.151H159.348V131.565Z" fill="#05232E"/>
<path d="M104.174 76.3914C73.7025 76.3914 49 101.094 49 131.565C49 139.182 55.1756 145.359 62.7938 145.359C70.4119 145.359 76.5875 139.183 76.5875 131.565C76.5875 116.329 88.938 103.978 104.174 103.978V76.3914Z" fill="#05232E"/>
<path d="M342.954 306.589L243.641 305.976C243.641 316.029 243.904 335.401 243.904 352.26H343.26C343.261 337.026 342.954 326.819 342.954 306.589Z" fill="#F6D76F"/>
<path d="M269.695 241.913C241.705 241.913 216.154 252.34 196.701 269.515C196.511 269.513 196.321 269.5 196.13 269.5L196.048 270.093C180.097 284.4 168.331 303.279 162.824 324.674C160.555 333.492 159.348 342.735 159.348 352.261V425.826C159.348 446.14 175.817 462.609 196.13 462.609H214.522C214.522 452.451 206.288 444.217 196.13 444.217V379.848C216.549 379.848 234.363 368.747 243.905 352.261C248.601 344.144 251.305 334.728 251.305 324.674H315.674C330.91 324.674 343.261 337.026 343.261 352.261V425.826C343.261 446.14 359.729 462.609 380.044 462.609H398.435C398.435 452.451 390.202 444.217 380.044 444.217V352.261C380.044 328.238 372.363 306.009 359.328 287.891C339.295 260.048 306.615 241.913 269.695 241.913Z" fill="#325763"/>
</g>
<defs>
<clipPath id="clip0_203_63">
<rect width="1130" height="525" fill="white"/>
</clipPath>
</defs>
</svg>
